<svg xmlns="http://www.w3.org/2000/svg" width="3156.8" height="620.0" xmlns:xlink="http://www.w3.org/1999/xlink"><rect x="0" y="0.0" width="3156.8" height="620.0" fill="#ffffff" /><text x="20.0" y="40.0" font-size="16px" dominant-baseline="middle" text-anchor="start" font-family="Arial" font-weight="normal" fill="#252b3a" >q0: </text><text x="20.0" y="100.0" font-size="16px" dominant-baseline="middle" text-anchor="start" font-family="Arial" font-weight="normal" fill="#252b3a" >q1: </text><text x="20.0" y="160.0" font-size="16px" dominant-baseline="middle" text-anchor="start" font-family="Arial" font-weight="normal" fill="#252b3a" >q2: </text><text x="20.0" y="220.0" font-size="16px" dominant-baseline="middle" text-anchor="start" font-family="Arial" font-weight="normal" fill="#252b3a" >q3: </text><text x="20.0" y="280.0" font-size="16px" dominant-baseline="middle" text-anchor="start" font-family="Arial" font-weight="normal" fill="#252b3a" >q4: </text><text x="20.0" y="340.0" font-size="16px" dominant-baseline="middle" text-anchor="start" font-family="Arial" font-weight="normal" fill="#252b3a" >q5: </text><text x="20.0" y="400.0" font-size="16px" dominant-baseline="middle" text-anchor="start" font-family="Arial" font-weight="normal" fill="#252b3a" >q6: </text><text x="20.0" y="460.0" font-size="16px" dominant-baseline="middle" text-anchor="start" font-family="Arial" font-weight="normal" fill="#252b3a" >q7: </text><text x="20.0" y="520.0" font-size="16px" dominant-baseline="middle" text-anchor="start" font-family="Arial" font-weight="normal" fill="#252b3a" >q8: </text><text x="20.0" y="580.0" font-size="16px" dominant-baseline="middle" text-anchor="start" font-family="Arial" font-weight="normal" fill="#252b3a" >q9: </text><line x1="48.8" x2="3136.8" y1="40.0" y2="40.0" stroke="#adb0b8" stroke-width="1" /><line x1="48.8" x2="3136.8" y1="100.0" y2="100.0" stroke="#adb0b8" stroke-width="1" /><line x1="48.8" x2="3136.8" y1="160.0" y2="160.0" stroke="#adb0b8" stroke-width="1" /><line x1="48.8" x2="3136.8" y1="220.0" y2="220.0" stroke="#adb0b8" stroke-width="1" /><line x1="48.8" x2="3136.8" y1="280.0" y2="280.0" stroke="#adb0b8" stroke-width="1" /><line x1="48.8" x2="3136.8" y1="340.0" y2="340.0" stroke="#adb0b8" stroke-width="1" /><line x1="48.8" x2="3136.8" y1="400.0" y2="400.0" stroke="#adb0b8" stroke-width="1" /><line x1="48.8" x2="3136.8" y1="460.0" y2="460.0" stroke="#adb0b8" stroke-width="1" /><line x1="48.8" x2="3136.8" y1="520.0" y2="520.0" stroke="#adb0b8" stroke-width="1" /><line x1="48.8" x2="3136.8" y1="580.0" y2="580.0" stroke="#adb0b8" stroke-width="1" /><rect x="72.8" y="20.0" width="80.0" height="40" rx="4" ry="4" stroke="#ffffff" stroke-width="0" fill="#fac209" fill-opacity="1" /><text x="112.8" y="36.0" font-size="20px" dominant-baseline="middle" text-anchor="middle" font-family="Arial" font-weight="normal" fill="#ffffff" >RY </text><text x="112.8" y="52.0" font-size="14.0px" dominant-baseline="middle" text-anchor="middle" font-family="Arial" font-weight="normal" fill="#ffffff" >theta0 </text><circle cx="212.8" cy="40.0" r="4" fill="#fac209" /><line x1="212.8" x2="212.8" y1="40.0" y2="580.0" stroke="#fac209" stroke-width="3" /><rect x="172.8" y="560.0" width="80.0" height="40" rx="4" ry="4" stroke="#ffffff" stroke-width="0" fill="#fac209" fill-opacity="1" /><text x="212.8" y="576.0" font-size="20px" dominant-baseline="middle" text-anchor="middle" font-family="Arial" font-weight="normal" fill="#ffffff" >RY </text><text x="212.8" y="592.0" font-size="14.0px" dominant-baseline="middle" text-anchor="middle" font-family="Arial" font-weight="normal" fill="#ffffff" >theta1 </text><circle cx="312.8" cy="40.0" r="4" fill="#fac209" /><line x1="312.8" x2="312.8" y1="40.0" y2="520.0" stroke="#fac209" stroke-width="3" /><rect x="272.8" y="500.0" width="80.0" height="40" rx="4" ry="4" stroke="#ffffff" stroke-width="0" fill="#fac209" fill-opacity="1" /><text x="312.8" y="516.0" font-size="20px" dominant-baseline="middle" text-anchor="middle" font-family="Arial" font-weight="normal" fill="#ffffff" >RY </text><text x="312.8" y="532.0" font-size="14.0px" dominant-baseline="middle" text-anchor="middle" font-family="Arial" font-weight="normal" fill="#ffffff" >theta2 </text><circle cx="412.8" cy="40.0" r="4" fill="#fac209" /><line x1="412.8" x2="412.8" y1="40.0" y2="460.0" stroke="#fac209" stroke-width="3" /><rect x="372.8" y="440.0" width="80.0" height="40" rx="4" ry="4" stroke="#ffffff" stroke-width="0" fill="#fac209" fill-opacity="1" /><text x="412.8" y="456.0" font-size="20px" dominant-baseline="middle" text-anchor="middle" font-family="Arial" font-weight="normal" fill="#ffffff" >RY </text><text x="412.8" y="472.0" font-size="14.0px" dominant-baseline="middle" text-anchor="middle" font-family="Arial" font-weight="normal" fill="#ffffff" >theta3 </text><circle cx="512.8" cy="40.0" r="4" fill="#fac209" /><line x1="512.8" x2="512.8" y1="40.0" y2="400.0" stroke="#fac209" stroke-width="3" /><rect x="472.8" y="380.0" width="80.0" height="40" rx="4" ry="4" stroke="#ffffff" stroke-width="0" fill="#fac209" fill-opacity="1" /><text x="512.8" y="396.0" font-size="20px" dominant-baseline="middle" text-anchor="middle" font-family="Arial" font-weight="normal" fill="#ffffff" >RY </text><text x="512.8" y="412.0" font-size="14.0px" dominant-baseline="middle" text-anchor="middle" font-family="Arial" font-weight="normal" fill="#ffffff" >theta4 </text><circle cx="612.8" cy="40.0" r="4" fill="#fac209" /><line x1="612.8" x2="612.8" y1="40.0" y2="340.0" stroke="#fac209" stroke-width="3" /><rect x="572.8" y="320.0" width="80.0" height="40" rx="4" ry="4" stroke="#ffffff" stroke-width="0" fill="#fac209" fill-opacity="1" /><text x="612.8" y="336.0" font-size="20px" dominant-baseline="middle" text-anchor="middle" font-family="Arial" font-weight="normal" fill="#ffffff" >RY </text><text x="612.8" y="352.0" font-size="14.0px" dominant-baseline="middle" text-anchor="middle" font-family="Arial" font-weight="normal" fill="#ffffff" >theta5 </text><rect x="672.8" y="20.0" width="40.0" height="40" rx="4" ry="4" stroke="#ffffff" stroke-width="0" fill="#5e7ce0" fill-opacity="1" /><text x="692.8" y="40.0" font-size="20px" dominant-baseline="middle" text-anchor="middle" font-family="Arial" font-weight="normal" fill="#ffffff" >X </text><circle cx="772.8" cy="40.0" r="4" fill="#fac209" /><line x1="772.8" x2="772.8" y1="40.0" y2="580.0" stroke="#fac209" stroke-width="3" /><rect x="732.8" y="560.0" width="80.0" height="40" rx="4" ry="4" stroke="#ffffff" stroke-width="0" fill="#fac209" fill-opacity="1" /><text x="772.8" y="576.0" font-size="20px" dominant-baseline="middle" text-anchor="middle" font-family="Arial" font-weight="normal" fill="#ffffff" >RY </text><text x="772.8" y="592.0" font-size="14.0px" dominant-baseline="middle" text-anchor="middle" font-family="Arial" font-weight="normal" fill="#ffffff" >theta6 </text><circle cx="872.8" cy="40.0" r="4" fill="#fac209" /><line x1="872.8" x2="872.8" y1="40.0" y2="520.0" stroke="#fac209" stroke-width="3" /><rect x="832.8" y="500.0" width="80.0" height="40" rx="4" ry="4" stroke="#ffffff" stroke-width="0" fill="#fac209" fill-opacity="1" /><text x="872.8" y="516.0" font-size="20px" dominant-baseline="middle" text-anchor="middle" font-family="Arial" font-weight="normal" fill="#ffffff" >RY </text><text x="872.8" y="532.0" font-size="14.0px" dominant-baseline="middle" text-anchor="middle" font-family="Arial" font-weight="normal" fill="#ffffff" >theta7 </text><circle cx="972.8" cy="40.0" r="4" fill="#fac209" /><line x1="972.8" x2="972.8" y1="40.0" y2="460.0" stroke="#fac209" stroke-width="3" /><rect x="932.8" y="440.0" width="80.0" height="40" rx="4" ry="4" stroke="#ffffff" stroke-width="0" fill="#fac209" fill-opacity="1" /><text x="972.8" y="456.0" font-size="20px" dominant-baseline="middle" text-anchor="middle" font-family="Arial" font-weight="normal" fill="#ffffff" >RY </text><text x="972.8" y="472.0" font-size="14.0px" dominant-baseline="middle" text-anchor="middle" font-family="Arial" font-weight="normal" fill="#ffffff" >theta8 </text><circle cx="1072.8" cy="40.0" r="4" fill="#fac209" /><line x1="1072.8" x2="1072.8" y1="40.0" y2="400.0" stroke="#fac209" stroke-width="3" /><rect x="1032.8" y="380.0" width="80.0" height="40" rx="4" ry="4" stroke="#ffffff" stroke-width="0" fill="#fac209" fill-opacity="1" /><text x="1072.8" y="396.0" font-size="20px" dominant-baseline="middle" text-anchor="middle" font-family="Arial" font-weight="normal" fill="#ffffff" >RY </text><text x="1072.8" y="412.0" font-size="14.0px" dominant-baseline="middle" text-anchor="middle" font-family="Arial" font-weight="normal" fill="#ffffff" >theta9 </text><circle cx="1172.8" cy="40.0" r="4" fill="#fac209" /><line x1="1172.8" x2="1172.8" y1="40.0" y2="340.0" stroke="#fac209" stroke-width="3" /><rect x="1132.8" y="320.0" width="80.0" height="40" rx="4" ry="4" stroke="#ffffff" stroke-width="0" fill="#fac209" fill-opacity="1" /><text x="1172.8" y="336.0" font-size="20px" dominant-baseline="middle" text-anchor="middle" font-family="Arial" font-weight="normal" fill="#ffffff" >RY </text><text x="1172.8" y="352.0" font-size="14.0px" dominant-baseline="middle" text-anchor="middle" font-family="Arial" font-weight="normal" fill="#ffffff" >theta10 </text><rect x="1232.8" y="20.0" width="40.0" height="40" rx="4" ry="4" stroke="#ffffff" stroke-width="0" fill="#5e7ce0" fill-opacity="1" /><text x="1252.8" y="40.0" font-size="20px" dominant-baseline="middle" text-anchor="middle" font-family="Arial" font-weight="normal" fill="#ffffff" >X </text><circle cx="1332.8" cy="520.0" r="4" fill="#fac209" /><circle cx="1332.8" cy="40.0" r="4" fill="#fac209" /><line x1="1332.8" x2="1332.8" y1="40.0" y2="520.0" stroke="#fac209" stroke-width="3" /><rect x="1292.8" y="260.0" width="80.0" height="40" rx="4" ry="4" stroke="#ffffff" stroke-width="0" fill="#fac209" fill-opacity="1" /><text x="1332.8" y="276.0" font-size="20px" dominant-baseline="middle" text-anchor="middle" font-family="Arial" font-weight="normal" fill="#ffffff" >RY </text><text x="1332.8" y="292.0" font-size="14.0px" dominant-baseline="middle" text-anchor="middle" font-family="Arial" font-weight="normal" fill="#ffffff" >theta11 </text><circle cx="1432.8" cy="460.0" r="4" fill="#fac209" /><circle cx="1432.8" cy="40.0" r="4" fill="#fac209" /><line x1="1432.8" x2="1432.8" y1="40.0" y2="460.0" stroke="#fac209" stroke-width="3" /><rect x="1392.8" y="200.0" width="80.0" height="40" rx="4" ry="4" stroke="#ffffff" stroke-width="0" fill="#fac209" fill-opacity="1" /><text x="1432.8" y="216.0" font-size="20px" dominant-baseline="middle" text-anchor="middle" font-family="Arial" font-weight="normal" fill="#ffffff" >RY </text><text x="1432.8" y="232.0" font-size="14.0px" dominant-baseline="middle" text-anchor="middle" font-family="Arial" font-weight="normal" fill="#ffffff" >theta12 </text><circle cx="1532.8" cy="400.0" r="4" fill="#fac209" /><circle cx="1532.8" cy="40.0" r="4" fill="#fac209" /><line x1="1532.8" x2="1532.8" y1="40.0" y2="400.0" stroke="#fac209" stroke-width="3" /><rect x="1492.8" y="140.0" width="80.0" height="40" rx="4" ry="4" stroke="#ffffff" stroke-width="0" fill="#fac209" fill-opacity="1" /><text x="1532.8" y="156.0" font-size="20px" dominant-baseline="middle" text-anchor="middle" font-family="Arial" font-weight="normal" fill="#ffffff" >RY </text><text x="1532.8" y="172.0" font-size="14.0px" dominant-baseline="middle" text-anchor="middle" font-family="Arial" font-weight="normal" fill="#ffffff" >theta13 </text><circle cx="1632.8" cy="340.0" r="4" fill="#fac209" /><circle cx="1632.8" cy="40.0" r="4" fill="#fac209" /><line x1="1632.8" x2="1632.8" y1="40.0" y2="340.0" stroke="#fac209" stroke-width="3" /><rect x="1592.8" y="80.0" width="80.0" height="40" rx="4" ry="4" stroke="#ffffff" stroke-width="0" fill="#fac209" fill-opacity="1" /><text x="1632.8" y="96.0" font-size="20px" dominant-baseline="middle" text-anchor="middle" font-family="Arial" font-weight="normal" fill="#ffffff" >RY </text><text x="1632.8" y="112.0" font-size="14.0px" dominant-baseline="middle" text-anchor="middle" font-family="Arial" font-weight="normal" fill="#ffffff" >theta14 </text><rect x="1692.8" y="20.0" width="40.0" height="40" rx="4" ry="4" stroke="#ffffff" stroke-width="0" fill="#5e7ce0" fill-opacity="1" /><text x="1712.8" y="40.0" font-size="20px" dominant-baseline="middle" text-anchor="middle" font-family="Arial" font-weight="normal" fill="#ffffff" >X </text><circle cx="1792.8" cy="520.0" r="4" fill="#fac209" /><circle cx="1792.8" cy="40.0" r="4" fill="#fac209" /><line x1="1792.8" x2="1792.8" y1="40.0" y2="520.0" stroke="#fac209" stroke-width="3" /><rect x="1752.8" y="260.0" width="80.0" height="40" rx="4" ry="4" stroke="#ffffff" stroke-width="0" fill="#fac209" fill-opacity="1" /><text x="1792.8" y="276.0" font-size="20px" dominant-baseline="middle" text-anchor="middle" font-family="Arial" font-weight="normal" fill="#ffffff" >RY </text><text x="1792.8" y="292.0" font-size="14.0px" dominant-baseline="middle" text-anchor="middle" font-family="Arial" font-weight="normal" fill="#ffffff" >theta15 </text><circle cx="1892.8" cy="460.0" r="4" fill="#fac209" /><circle cx="1892.8" cy="40.0" r="4" fill="#fac209" /><line x1="1892.8" x2="1892.8" y1="40.0" y2="460.0" stroke="#fac209" stroke-width="3" /><rect x="1852.8" y="200.0" width="80.0" height="40" rx="4" ry="4" stroke="#ffffff" stroke-width="0" fill="#fac209" fill-opacity="1" /><text x="1892.8" y="216.0" font-size="20px" dominant-baseline="middle" text-anchor="middle" font-family="Arial" font-weight="normal" fill="#ffffff" >RY </text><text x="1892.8" y="232.0" font-size="14.0px" dominant-baseline="middle" text-anchor="middle" font-family="Arial" font-weight="normal" fill="#ffffff" >theta16 </text><circle cx="1992.8" cy="400.0" r="4" fill="#fac209" /><circle cx="1992.8" cy="40.0" r="4" fill="#fac209" /><line x1="1992.8" x2="1992.8" y1="40.0" y2="400.0" stroke="#fac209" stroke-width="3" /><rect x="1952.8" y="140.0" width="80.0" height="40" rx="4" ry="4" stroke="#ffffff" stroke-width="0" fill="#fac209" fill-opacity="1" /><text x="1992.8" y="156.0" font-size="20px" dominant-baseline="middle" text-anchor="middle" font-family="Arial" font-weight="normal" fill="#ffffff" >RY </text><text x="1992.8" y="172.0" font-size="14.0px" dominant-baseline="middle" text-anchor="middle" font-family="Arial" font-weight="normal" fill="#ffffff" >theta17 </text><circle cx="2092.8" cy="340.0" r="4" fill="#fac209" /><circle cx="2092.8" cy="40.0" r="4" fill="#fac209" /><line x1="2092.8" x2="2092.8" y1="40.0" y2="340.0" stroke="#fac209" stroke-width="3" /><rect x="2052.8" y="80.0" width="80.0" height="40" rx="4" ry="4" stroke="#ffffff" stroke-width="0" fill="#fac209" fill-opacity="1" /><text x="2092.8" y="96.0" font-size="20px" dominant-baseline="middle" text-anchor="middle" font-family="Arial" font-weight="normal" fill="#ffffff" >RY </text><text x="2092.8" y="112.0" font-size="14.0px" dominant-baseline="middle" text-anchor="middle" font-family="Arial" font-weight="normal" fill="#ffffff" >theta18 </text><rect x="1852.8" y="500.0" width="40.0" height="40" rx="4" ry="4" stroke="#ffffff" stroke-width="0" fill="#5e7ce0" fill-opacity="1" /><text x="1872.8" y="520.0" font-size="20px" dominant-baseline="middle" text-anchor="middle" font-family="Arial" font-weight="normal" fill="#ffffff" >X </text><rect x="1952.8" y="440.0" width="40.0" height="40" rx="4" ry="4" stroke="#ffffff" stroke-width="0" fill="#5e7ce0" fill-opacity="1" /><text x="1972.8" y="460.0" font-size="20px" dominant-baseline="middle" text-anchor="middle" font-family="Arial" font-weight="normal" fill="#ffffff" >X </text><rect x="2052.8" y="380.0" width="40.0" height="40" rx="4" ry="4" stroke="#ffffff" stroke-width="0" fill="#5e7ce0" fill-opacity="1" /><text x="2072.8" y="400.0" font-size="20px" dominant-baseline="middle" text-anchor="middle" font-family="Arial" font-weight="normal" fill="#ffffff" >X </text><rect x="2152.8" y="320.0" width="40.0" height="40" rx="4" ry="4" stroke="#ffffff" stroke-width="0" fill="#5e7ce0" fill-opacity="1" /><text x="2172.8" y="340.0" font-size="20px" dominant-baseline="middle" text-anchor="middle" font-family="Arial" font-weight="normal" fill="#ffffff" >X </text><circle cx="2252.8" cy="520.0" r="4" fill="#fac209" /><circle cx="2252.8" cy="40.0" r="4" fill="#fac209" /><line x1="2252.8" x2="2252.8" y1="40.0" y2="520.0" stroke="#fac209" stroke-width="3" /><rect x="2212.8" y="260.0" width="80.0" height="40" rx="4" ry="4" stroke="#ffffff" stroke-width="0" fill="#fac209" fill-opacity="1" /><text x="2252.8" y="276.0" font-size="20px" dominant-baseline="middle" text-anchor="middle" font-family="Arial" font-weight="normal" fill="#ffffff" >RY </text><text x="2252.8" y="292.0" font-size="14.0px" dominant-baseline="middle" text-anchor="middle" font-family="Arial" font-weight="normal" fill="#ffffff" >theta19 </text><circle cx="2352.8" cy="460.0" r="4" fill="#fac209" /><circle cx="2352.8" cy="40.0" r="4" fill="#fac209" /><line x1="2352.8" x2="2352.8" y1="40.0" y2="460.0" stroke="#fac209" stroke-width="3" /><rect x="2312.8" y="200.0" width="80.0" height="40" rx="4" ry="4" stroke="#ffffff" stroke-width="0" fill="#fac209" fill-opacity="1" /><text x="2352.8" y="216.0" font-size="20px" dominant-baseline="middle" text-anchor="middle" font-family="Arial" font-weight="normal" fill="#ffffff" >RY </text><text x="2352.8" y="232.0" font-size="14.0px" dominant-baseline="middle" text-anchor="middle" font-family="Arial" font-weight="normal" fill="#ffffff" >theta20 </text><circle cx="2452.8" cy="400.0" r="4" fill="#fac209" /><circle cx="2452.8" cy="40.0" r="4" fill="#fac209" /><line x1="2452.8" x2="2452.8" y1="40.0" y2="400.0" stroke="#fac209" stroke-width="3" /><rect x="2412.8" y="140.0" width="80.0" height="40" rx="4" ry="4" stroke="#ffffff" stroke-width="0" fill="#fac209" fill-opacity="1" /><text x="2452.8" y="156.0" font-size="20px" dominant-baseline="middle" text-anchor="middle" font-family="Arial" font-weight="normal" fill="#ffffff" >RY </text><text x="2452.8" y="172.0" font-size="14.0px" dominant-baseline="middle" text-anchor="middle" font-family="Arial" font-weight="normal" fill="#ffffff" >theta21 </text><circle cx="2552.8" cy="340.0" r="4" fill="#fac209" /><circle cx="2552.8" cy="40.0" r="4" fill="#fac209" /><line x1="2552.8" x2="2552.8" y1="40.0" y2="340.0" stroke="#fac209" stroke-width="3" /><rect x="2512.8" y="80.0" width="80.0" height="40" rx="4" ry="4" stroke="#ffffff" stroke-width="0" fill="#fac209" fill-opacity="1" /><text x="2552.8" y="96.0" font-size="20px" dominant-baseline="middle" text-anchor="middle" font-family="Arial" font-weight="normal" fill="#ffffff" >RY </text><text x="2552.8" y="112.0" font-size="14.0px" dominant-baseline="middle" text-anchor="middle" font-family="Arial" font-weight="normal" fill="#ffffff" >theta22 </text><rect x="2612.8" y="20.0" width="40.0" height="40" rx="4" ry="4" stroke="#ffffff" stroke-width="0" fill="#5e7ce0" fill-opacity="1" /><text x="2632.8" y="40.0" font-size="20px" dominant-baseline="middle" text-anchor="middle" font-family="Arial" font-weight="normal" fill="#ffffff" >X </text><circle cx="2712.8" cy="520.0" r="4" fill="#fac209" /><circle cx="2712.8" cy="40.0" r="4" fill="#fac209" /><line x1="2712.8" x2="2712.8" y1="40.0" y2="520.0" stroke="#fac209" stroke-width="3" /><rect x="2672.8" y="260.0" width="80.0" height="40" rx="4" ry="4" stroke="#ffffff" stroke-width="0" fill="#fac209" fill-opacity="1" /><text x="2712.8" y="276.0" font-size="20px" dominant-baseline="middle" text-anchor="middle" font-family="Arial" font-weight="normal" fill="#ffffff" >RY </text><text x="2712.8" y="292.0" font-size="14.0px" dominant-baseline="middle" text-anchor="middle" font-family="Arial" font-weight="normal" fill="#ffffff" >theta23 </text><circle cx="2812.8" cy="460.0" r="4" fill="#fac209" /><circle cx="2812.8" cy="40.0" r="4" fill="#fac209" /><line x1="2812.8" x2="2812.8" y1="40.0" y2="460.0" stroke="#fac209" stroke-width="3" /><rect x="2772.8" y="200.0" width="80.0" height="40" rx="4" ry="4" stroke="#ffffff" stroke-width="0" fill="#fac209" fill-opacity="1" /><text x="2812.8" y="216.0" font-size="20px" dominant-baseline="middle" text-anchor="middle" font-family="Arial" font-weight="normal" fill="#ffffff" >RY </text><text x="2812.8" y="232.0" font-size="14.0px" dominant-baseline="middle" text-anchor="middle" font-family="Arial" font-weight="normal" fill="#ffffff" >theta24 </text><circle cx="2912.8" cy="400.0" r="4" fill="#fac209" /><circle cx="2912.8" cy="40.0" r="4" fill="#fac209" /><line x1="2912.8" x2="2912.8" y1="40.0" y2="400.0" stroke="#fac209" stroke-width="3" /><rect x="2872.8" y="140.0" width="80.0" height="40" rx="4" ry="4" stroke="#ffffff" stroke-width="0" fill="#fac209" fill-opacity="1" /><text x="2912.8" y="156.0" font-size="20px" dominant-baseline="middle" text-anchor="middle" font-family="Arial" font-weight="normal" fill="#ffffff" >RY </text><text x="2912.8" y="172.0" font-size="14.0px" dominant-baseline="middle" text-anchor="middle" font-family="Arial" font-weight="normal" fill="#ffffff" >theta25 </text><circle cx="3012.8" cy="340.0" r="4" fill="#fac209" /><circle cx="3012.8" cy="40.0" r="4" fill="#fac209" /><line x1="3012.8" x2="3012.8" y1="40.0" y2="340.0" stroke="#fac209" stroke-width="3" /><rect x="2972.8" y="80.0" width="80.0" height="40" rx="4" ry="4" stroke="#ffffff" stroke-width="0" fill="#fac209" fill-opacity="1" /><text x="3012.8" y="96.0" font-size="20px" dominant-baseline="middle" text-anchor="middle" font-family="Arial" font-weight="normal" fill="#ffffff" >RY </text><text x="3012.8" y="112.0" font-size="14.0px" dominant-baseline="middle" text-anchor="middle" font-family="Arial" font-weight="normal" fill="#ffffff" >theta26 </text><rect x="2772.8" y="500.0" width="40.0" height="40" rx="4" ry="4" stroke="#ffffff" stroke-width="0" fill="#5e7ce0" fill-opacity="1" /><text x="2792.8" y="520.0" font-size="20px" dominant-baseline="middle" text-anchor="middle" font-family="Arial" font-weight="normal" fill="#ffffff" >X </text><rect x="2872.8" y="440.0" width="40.0" height="40" rx="4" ry="4" stroke="#ffffff" stroke-width="0" fill="#5e7ce0" fill-opacity="1" /><text x="2892.8" y="460.0" font-size="20px" dominant-baseline="middle" text-anchor="middle" font-family="Arial" font-weight="normal" fill="#ffffff" >X </text><rect x="2972.8" y="380.0" width="40.0" height="40" rx="4" ry="4" stroke="#ffffff" stroke-width="0" fill="#5e7ce0" fill-opacity="1" /><text x="2992.8" y="400.0" font-size="20px" dominant-baseline="middle" text-anchor="middle" font-family="Arial" font-weight="normal" fill="#ffffff" >X </text><rect x="3072.8" y="320.0" width="40.0" height="40" rx="4" ry="4" stroke="#ffffff" stroke-width="0" fill="#5e7ce0" fill-opacity="1" /><text x="3092.8" y="340.0" font-size="20px" dominant-baseline="middle" text-anchor="middle" font-family="Arial" font-weight="normal" fill="#ffffff" >X </text></svg>