<svg xmlns="http://www.w3.org/2000/svg" width="4376.8" height="620.0" xmlns:xlink="http://www.w3.org/1999/xlink"><rect x="0" y="0.0" width="4376.8" height="620.0" fill="#ffffff" /><text x="20.0" y="40.0" font-size="16px" dominant-baseline="middle" text-anchor="start" font-family="Arial" font-weight="normal" fill="#252b3a" >q0: </text><text x="20.0" y="100.0" font-size="16px" dominant-baseline="middle" text-anchor="start" font-family="Arial" font-weight="normal" fill="#252b3a" >q1: </text><text x="20.0" y="160.0" font-size="16px" dominant-baseline="middle" text-anchor="start" font-family="Arial" font-weight="normal" fill="#252b3a" >q2: </text><text x="20.0" y="220.0" font-size="16px" dominant-baseline="middle" text-anchor="start" font-family="Arial" font-weight="normal" fill="#252b3a" >q3: </text><text x="20.0" y="280.0" font-size="16px" dominant-baseline="middle" text-anchor="start" font-family="Arial" font-weight="normal" fill="#252b3a" >q4: </text><text x="20.0" y="340.0" font-size="16px" dominant-baseline="middle" text-anchor="start" font-family="Arial" font-weight="normal" fill="#252b3a" >q5: </text><text x="20.0" y="400.0" font-size="16px" dominant-baseline="middle" text-anchor="start" font-family="Arial" font-weight="normal" fill="#252b3a" >q6: </text><text x="20.0" y="460.0" font-size="16px" dominant-baseline="middle" text-anchor="start" font-family="Arial" font-weight="normal" fill="#252b3a" >q7: </text><text x="20.0" y="520.0" font-size="16px" dominant-baseline="middle" text-anchor="start" font-family="Arial" font-weight="normal" fill="#252b3a" >q8: </text><text x="20.0" y="580.0" font-size="16px" dominant-baseline="middle" text-anchor="start" font-family="Arial" font-weight="normal" fill="#252b3a" >q9: </text><line x1="48.8" x2="4356.8" y1="40.0" y2="40.0" stroke="#adb0b8" stroke-width="1" /><line x1="48.8" x2="4356.8" y1="100.0" y2="100.0" stroke="#adb0b8" stroke-width="1" /><line x1="48.8" x2="4356.8" y1="160.0" y2="160.0" stroke="#adb0b8" stroke-width="1" /><line x1="48.8" x2="4356.8" y1="220.0" y2="220.0" stroke="#adb0b8" stroke-width="1" /><line x1="48.8" x2="4356.8" y1="280.0" y2="280.0" stroke="#adb0b8" stroke-width="1" /><line x1="48.8" x2="4356.8" y1="340.0" y2="340.0" stroke="#adb0b8" stroke-width="1" /><line x1="48.8" x2="4356.8" y1="400.0" y2="400.0" stroke="#adb0b8" stroke-width="1" /><line x1="48.8" x2="4356.8" y1="460.0" y2="460.0" stroke="#adb0b8" stroke-width="1" /><line x1="48.8" x2="4356.8" y1="520.0" y2="520.0" stroke="#adb0b8" stroke-width="1" /><line x1="48.8" x2="4356.8" y1="580.0" y2="580.0" stroke="#adb0b8" stroke-width="1" /><rect x="72.8" y="20.0" width="80.0" height="40" rx="4" ry="4" stroke="#ffffff" stroke-width="0" fill="#fac209" fill-opacity="1" /><text x="112.8" y="36.0" font-size="20px" dominant-baseline="middle" text-anchor="middle" font-family="Arial" font-weight="normal" fill="#ffffff" >RY </text><text x="112.8" y="52.0" font-size="14.0px" dominant-baseline="middle" text-anchor="middle" font-family="Arial" font-weight="normal" fill="#ffffff" >theta0 </text><circle cx="212.8" cy="40.0" r="4" fill="#fac209" /><line x1="212.8" x2="212.8" y1="40.0" y2="580.0" stroke="#fac209" stroke-width="3" /><rect x="172.8" y="560.0" width="80.0" height="40" rx="4" ry="4" stroke="#ffffff" stroke-width="0" fill="#fac209" fill-opacity="1" /><text x="212.8" y="576.0" font-size="20px" dominant-baseline="middle" text-anchor="middle" font-family="Arial" font-weight="normal" fill="#ffffff" >RY </text><text x="212.8" y="592.0" font-size="14.0px" dominant-baseline="middle" text-anchor="middle" font-family="Arial" font-weight="normal" fill="#ffffff" >theta1 </text><rect x="272.8" y="20.0" width="40.0" height="40" rx="4" ry="4" stroke="#ffffff" stroke-width="0" fill="#5e7ce0" fill-opacity="1" /><text x="292.8" y="40.0" font-size="20px" dominant-baseline="middle" text-anchor="middle" font-family="Arial" font-weight="normal" fill="#ffffff" >X </text><circle cx="372.8" cy="40.0" r="4" fill="#fac209" /><line x1="372.8" x2="372.8" y1="40.0" y2="580.0" stroke="#fac209" stroke-width="3" /><rect x="332.8" y="560.0" width="80.0" height="40" rx="4" ry="4" stroke="#ffffff" stroke-width="0" fill="#fac209" fill-opacity="1" /><text x="372.8" y="576.0" font-size="20px" dominant-baseline="middle" text-anchor="middle" font-family="Arial" font-weight="normal" fill="#ffffff" >RY </text><text x="372.8" y="592.0" font-size="14.0px" dominant-baseline="middle" text-anchor="middle" font-family="Arial" font-weight="normal" fill="#ffffff" >theta2 </text><rect x="432.8" y="20.0" width="40.0" height="40" rx="4" ry="4" stroke="#ffffff" stroke-width="0" fill="#5e7ce0" fill-opacity="1" /><text x="452.8" y="40.0" font-size="20px" dominant-baseline="middle" text-anchor="middle" font-family="Arial" font-weight="normal" fill="#ffffff" >X </text><circle cx="532.8" cy="580.0" r="4" fill="#fac209" /><circle cx="532.8" cy="40.0" r="4" fill="#fac209" /><line x1="532.8" x2="532.8" y1="40.0" y2="580.0" stroke="#fac209" stroke-width="3" /><rect x="492.8" y="440.0" width="80.0" height="40" rx="4" ry="4" stroke="#ffffff" stroke-width="0" fill="#fac209" fill-opacity="1" /><text x="532.8" y="456.0" font-size="20px" dominant-baseline="middle" text-anchor="middle" font-family="Arial" font-weight="normal" fill="#ffffff" >RY </text><text x="532.8" y="472.0" font-size="14.0px" dominant-baseline="middle" text-anchor="middle" font-family="Arial" font-weight="normal" fill="#ffffff" >theta3 </text><circle cx="632.8" cy="580.0" r="4" fill="#fac209" /><circle cx="632.8" cy="40.0" r="4" fill="#fac209" /><line x1="632.8" x2="632.8" y1="40.0" y2="580.0" stroke="#fac209" stroke-width="3" /><rect x="592.8" y="320.0" width="80.0" height="40" rx="4" ry="4" stroke="#ffffff" stroke-width="0" fill="#fac209" fill-opacity="1" /><text x="632.8" y="336.0" font-size="20px" dominant-baseline="middle" text-anchor="middle" font-family="Arial" font-weight="normal" fill="#ffffff" >RY </text><text x="632.8" y="352.0" font-size="14.0px" dominant-baseline="middle" text-anchor="middle" font-family="Arial" font-weight="normal" fill="#ffffff" >theta4 </text><circle cx="732.8" cy="580.0" r="4" fill="#fac209" /><circle cx="732.8" cy="40.0" r="4" fill="#fac209" /><line x1="732.8" x2="732.8" y1="40.0" y2="580.0" stroke="#fac209" stroke-width="3" /><rect x="692.8" y="200.0" width="80.0" height="40" rx="4" ry="4" stroke="#ffffff" stroke-width="0" fill="#fac209" fill-opacity="1" /><text x="732.8" y="216.0" font-size="20px" dominant-baseline="middle" text-anchor="middle" font-family="Arial" font-weight="normal" fill="#ffffff" >RY </text><text x="732.8" y="232.0" font-size="14.0px" dominant-baseline="middle" text-anchor="middle" font-family="Arial" font-weight="normal" fill="#ffffff" >theta5 </text><circle cx="832.8" cy="580.0" r="4" fill="#fac209" /><circle cx="832.8" cy="40.0" r="4" fill="#fac209" /><line x1="832.8" x2="832.8" y1="40.0" y2="580.0" stroke="#fac209" stroke-width="3" /><rect x="792.8" y="80.0" width="80.0" height="40" rx="4" ry="4" stroke="#ffffff" stroke-width="0" fill="#fac209" fill-opacity="1" /><text x="832.8" y="96.0" font-size="20px" dominant-baseline="middle" text-anchor="middle" font-family="Arial" font-weight="normal" fill="#ffffff" >RY </text><text x="832.8" y="112.0" font-size="14.0px" dominant-baseline="middle" text-anchor="middle" font-family="Arial" font-weight="normal" fill="#ffffff" >theta6 </text><rect x="892.8" y="20.0" width="40.0" height="40" rx="4" ry="4" stroke="#ffffff" stroke-width="0" fill="#5e7ce0" fill-opacity="1" /><text x="912.8" y="40.0" font-size="20px" dominant-baseline="middle" text-anchor="middle" font-family="Arial" font-weight="normal" fill="#ffffff" >X </text><circle cx="992.8" cy="580.0" r="4" fill="#fac209" /><circle cx="992.8" cy="40.0" r="4" fill="#fac209" /><line x1="992.8" x2="992.8" y1="40.0" y2="580.0" stroke="#fac209" stroke-width="3" /><rect x="952.8" y="440.0" width="80.0" height="40" rx="4" ry="4" stroke="#ffffff" stroke-width="0" fill="#fac209" fill-opacity="1" /><text x="992.8" y="456.0" font-size="20px" dominant-baseline="middle" text-anchor="middle" font-family="Arial" font-weight="normal" fill="#ffffff" >RY </text><text x="992.8" y="472.0" font-size="14.0px" dominant-baseline="middle" text-anchor="middle" font-family="Arial" font-weight="normal" fill="#ffffff" >theta7 </text><circle cx="1092.8" cy="580.0" r="4" fill="#fac209" /><circle cx="1092.8" cy="40.0" r="4" fill="#fac209" /><line x1="1092.8" x2="1092.8" y1="40.0" y2="580.0" stroke="#fac209" stroke-width="3" /><rect x="1052.8" y="320.0" width="80.0" height="40" rx="4" ry="4" stroke="#ffffff" stroke-width="0" fill="#fac209" fill-opacity="1" /><text x="1092.8" y="336.0" font-size="20px" dominant-baseline="middle" text-anchor="middle" font-family="Arial" font-weight="normal" fill="#ffffff" >RY </text><text x="1092.8" y="352.0" font-size="14.0px" dominant-baseline="middle" text-anchor="middle" font-family="Arial" font-weight="normal" fill="#ffffff" >theta8 </text><circle cx="1192.8" cy="580.0" r="4" fill="#fac209" /><circle cx="1192.8" cy="40.0" r="4" fill="#fac209" /><line x1="1192.8" x2="1192.8" y1="40.0" y2="580.0" stroke="#fac209" stroke-width="3" /><rect x="1152.8" y="200.0" width="80.0" height="40" rx="4" ry="4" stroke="#ffffff" stroke-width="0" fill="#fac209" fill-opacity="1" /><text x="1192.8" y="216.0" font-size="20px" dominant-baseline="middle" text-anchor="middle" font-family="Arial" font-weight="normal" fill="#ffffff" >RY </text><text x="1192.8" y="232.0" font-size="14.0px" dominant-baseline="middle" text-anchor="middle" font-family="Arial" font-weight="normal" fill="#ffffff" >theta9 </text><circle cx="1292.8" cy="580.0" r="4" fill="#fac209" /><circle cx="1292.8" cy="40.0" r="4" fill="#fac209" /><line x1="1292.8" x2="1292.8" y1="40.0" y2="580.0" stroke="#fac209" stroke-width="3" /><rect x="1252.8" y="80.0" width="80.0" height="40" rx="4" ry="4" stroke="#ffffff" stroke-width="0" fill="#fac209" fill-opacity="1" /><text x="1292.8" y="96.0" font-size="20px" dominant-baseline="middle" text-anchor="middle" font-family="Arial" font-weight="normal" fill="#ffffff" >RY </text><text x="1292.8" y="112.0" font-size="14.0px" dominant-baseline="middle" text-anchor="middle" font-family="Arial" font-weight="normal" fill="#ffffff" >theta10 </text><rect x="1352.8" y="560.0" width="40.0" height="40" rx="4" ry="4" stroke="#ffffff" stroke-width="0" fill="#5e7ce0" fill-opacity="1" /><text x="1372.8" y="580.0" font-size="20px" dominant-baseline="middle" text-anchor="middle" font-family="Arial" font-weight="normal" fill="#ffffff" >X </text><circle cx="1452.8" cy="580.0" r="4" fill="#fac209" /><circle cx="1452.8" cy="40.0" r="4" fill="#fac209" /><line x1="1452.8" x2="1452.8" y1="40.0" y2="580.0" stroke="#fac209" stroke-width="3" /><rect x="1412.8" y="440.0" width="80.0" height="40" rx="4" ry="4" stroke="#ffffff" stroke-width="0" fill="#fac209" fill-opacity="1" /><text x="1452.8" y="456.0" font-size="20px" dominant-baseline="middle" text-anchor="middle" font-family="Arial" font-weight="normal" fill="#ffffff" >RY </text><text x="1452.8" y="472.0" font-size="14.0px" dominant-baseline="middle" text-anchor="middle" font-family="Arial" font-weight="normal" fill="#ffffff" >theta11 </text><circle cx="1552.8" cy="580.0" r="4" fill="#fac209" /><circle cx="1552.8" cy="40.0" r="4" fill="#fac209" /><line x1="1552.8" x2="1552.8" y1="40.0" y2="580.0" stroke="#fac209" stroke-width="3" /><rect x="1512.8" y="320.0" width="80.0" height="40" rx="4" ry="4" stroke="#ffffff" stroke-width="0" fill="#fac209" fill-opacity="1" /><text x="1552.8" y="336.0" font-size="20px" dominant-baseline="middle" text-anchor="middle" font-family="Arial" font-weight="normal" fill="#ffffff" >RY </text><text x="1552.8" y="352.0" font-size="14.0px" dominant-baseline="middle" text-anchor="middle" font-family="Arial" font-weight="normal" fill="#ffffff" >theta12 </text><circle cx="1652.8" cy="580.0" r="4" fill="#fac209" /><circle cx="1652.8" cy="40.0" r="4" fill="#fac209" /><line x1="1652.8" x2="1652.8" y1="40.0" y2="580.0" stroke="#fac209" stroke-width="3" /><rect x="1612.8" y="200.0" width="80.0" height="40" rx="4" ry="4" stroke="#ffffff" stroke-width="0" fill="#fac209" fill-opacity="1" /><text x="1652.8" y="216.0" font-size="20px" dominant-baseline="middle" text-anchor="middle" font-family="Arial" font-weight="normal" fill="#ffffff" >RY </text><text x="1652.8" y="232.0" font-size="14.0px" dominant-baseline="middle" text-anchor="middle" font-family="Arial" font-weight="normal" fill="#ffffff" >theta13 </text><circle cx="1752.8" cy="580.0" r="4" fill="#fac209" /><circle cx="1752.8" cy="40.0" r="4" fill="#fac209" /><line x1="1752.8" x2="1752.8" y1="40.0" y2="580.0" stroke="#fac209" stroke-width="3" /><rect x="1712.8" y="80.0" width="80.0" height="40" rx="4" ry="4" stroke="#ffffff" stroke-width="0" fill="#fac209" fill-opacity="1" /><text x="1752.8" y="96.0" font-size="20px" dominant-baseline="middle" text-anchor="middle" font-family="Arial" font-weight="normal" fill="#ffffff" >RY </text><text x="1752.8" y="112.0" font-size="14.0px" dominant-baseline="middle" text-anchor="middle" font-family="Arial" font-weight="normal" fill="#ffffff" >theta14 </text><rect x="1812.8" y="20.0" width="40.0" height="40" rx="4" ry="4" stroke="#ffffff" stroke-width="0" fill="#5e7ce0" fill-opacity="1" /><text x="1832.8" y="40.0" font-size="20px" dominant-baseline="middle" text-anchor="middle" font-family="Arial" font-weight="normal" fill="#ffffff" >X </text><circle cx="1912.8" cy="580.0" r="4" fill="#fac209" /><circle cx="1912.8" cy="40.0" r="4" fill="#fac209" /><line x1="1912.8" x2="1912.8" y1="40.0" y2="580.0" stroke="#fac209" stroke-width="3" /><rect x="1872.8" y="440.0" width="80.0" height="40" rx="4" ry="4" stroke="#ffffff" stroke-width="0" fill="#fac209" fill-opacity="1" /><text x="1912.8" y="456.0" font-size="20px" dominant-baseline="middle" text-anchor="middle" font-family="Arial" font-weight="normal" fill="#ffffff" >RY </text><text x="1912.8" y="472.0" font-size="14.0px" dominant-baseline="middle" text-anchor="middle" font-family="Arial" font-weight="normal" fill="#ffffff" >theta15 </text><circle cx="2012.8" cy="580.0" r="4" fill="#fac209" /><circle cx="2012.8" cy="40.0" r="4" fill="#fac209" /><line x1="2012.8" x2="2012.8" y1="40.0" y2="580.0" stroke="#fac209" stroke-width="3" /><rect x="1972.8" y="320.0" width="80.0" height="40" rx="4" ry="4" stroke="#ffffff" stroke-width="0" fill="#fac209" fill-opacity="1" /><text x="2012.8" y="336.0" font-size="20px" dominant-baseline="middle" text-anchor="middle" font-family="Arial" font-weight="normal" fill="#ffffff" >RY </text><text x="2012.8" y="352.0" font-size="14.0px" dominant-baseline="middle" text-anchor="middle" font-family="Arial" font-weight="normal" fill="#ffffff" >theta16 </text><circle cx="2112.8" cy="580.0" r="4" fill="#fac209" /><circle cx="2112.8" cy="40.0" r="4" fill="#fac209" /><line x1="2112.8" x2="2112.8" y1="40.0" y2="580.0" stroke="#fac209" stroke-width="3" /><rect x="2072.8" y="200.0" width="80.0" height="40" rx="4" ry="4" stroke="#ffffff" stroke-width="0" fill="#fac209" fill-opacity="1" /><text x="2112.8" y="216.0" font-size="20px" dominant-baseline="middle" text-anchor="middle" font-family="Arial" font-weight="normal" fill="#ffffff" >RY </text><text x="2112.8" y="232.0" font-size="14.0px" dominant-baseline="middle" text-anchor="middle" font-family="Arial" font-weight="normal" fill="#ffffff" >theta17 </text><circle cx="2212.8" cy="580.0" r="4" fill="#fac209" /><circle cx="2212.8" cy="40.0" r="4" fill="#fac209" /><line x1="2212.8" x2="2212.8" y1="40.0" y2="580.0" stroke="#fac209" stroke-width="3" /><rect x="2172.8" y="80.0" width="80.0" height="40" rx="4" ry="4" stroke="#ffffff" stroke-width="0" fill="#fac209" fill-opacity="1" /><text x="2212.8" y="96.0" font-size="20px" dominant-baseline="middle" text-anchor="middle" font-family="Arial" font-weight="normal" fill="#ffffff" >RY </text><text x="2212.8" y="112.0" font-size="14.0px" dominant-baseline="middle" text-anchor="middle" font-family="Arial" font-weight="normal" fill="#ffffff" >theta18 </text><rect x="2272.8" y="560.0" width="40.0" height="40" rx="4" ry="4" stroke="#ffffff" stroke-width="0" fill="#5e7ce0" fill-opacity="1" /><text x="2292.8" y="580.0" font-size="20px" dominant-baseline="middle" text-anchor="middle" font-family="Arial" font-weight="normal" fill="#ffffff" >X </text><circle cx="2312.8" cy="100.0" r="4" fill="#fac209" /><circle cx="2312.8" cy="40.0" r="4" fill="#fac209" /><line x1="2312.8" x2="2312.8" y1="40.0" y2="400.0" stroke="#fac209" stroke-width="3" /><rect x="2272.8" y="380.0" width="80.0" height="40" rx="4" ry="4" stroke="#ffffff" stroke-width="0" fill="#fac209" fill-opacity="1" /><text x="2312.8" y="396.0" font-size="20px" dominant-baseline="middle" text-anchor="middle" font-family="Arial" font-weight="normal" fill="#ffffff" >RY </text><text x="2312.8" y="412.0" font-size="14.0px" dominant-baseline="middle" text-anchor="middle" font-family="Arial" font-weight="normal" fill="#ffffff" >theta19 </text><circle cx="2412.8" cy="100.0" r="4" fill="#fac209" /><circle cx="2412.8" cy="40.0" r="4" fill="#fac209" /><line x1="2412.8" x2="2412.8" y1="40.0" y2="280.0" stroke="#fac209" stroke-width="3" /><rect x="2372.8" y="260.0" width="80.0" height="40" rx="4" ry="4" stroke="#ffffff" stroke-width="0" fill="#fac209" fill-opacity="1" /><text x="2412.8" y="276.0" font-size="20px" dominant-baseline="middle" text-anchor="middle" font-family="Arial" font-weight="normal" fill="#ffffff" >RY </text><text x="2412.8" y="292.0" font-size="14.0px" dominant-baseline="middle" text-anchor="middle" font-family="Arial" font-weight="normal" fill="#ffffff" >theta20 </text><circle cx="2512.8" cy="220.0" r="4" fill="#fac209" /><circle cx="2512.8" cy="40.0" r="4" fill="#fac209" /><line x1="2512.8" x2="2512.8" y1="40.0" y2="220.0" stroke="#fac209" stroke-width="3" /><rect x="2472.8" y="140.0" width="80.0" height="40" rx="4" ry="4" stroke="#ffffff" stroke-width="0" fill="#fac209" fill-opacity="1" /><text x="2512.8" y="156.0" font-size="20px" dominant-baseline="middle" text-anchor="middle" font-family="Arial" font-weight="normal" fill="#ffffff" >RY </text><text x="2512.8" y="172.0" font-size="14.0px" dominant-baseline="middle" text-anchor="middle" font-family="Arial" font-weight="normal" fill="#ffffff" >theta21 </text><rect x="2572.8" y="20.0" width="40.0" height="40" rx="4" ry="4" stroke="#ffffff" stroke-width="0" fill="#5e7ce0" fill-opacity="1" /><text x="2592.8" y="40.0" font-size="20px" dominant-baseline="middle" text-anchor="middle" font-family="Arial" font-weight="normal" fill="#ffffff" >X </text><circle cx="2672.8" cy="100.0" r="4" fill="#fac209" /><circle cx="2672.8" cy="40.0" r="4" fill="#fac209" /><line x1="2672.8" x2="2672.8" y1="40.0" y2="400.0" stroke="#fac209" stroke-width="3" /><rect x="2632.8" y="380.0" width="80.0" height="40" rx="4" ry="4" stroke="#ffffff" stroke-width="0" fill="#fac209" fill-opacity="1" /><text x="2672.8" y="396.0" font-size="20px" dominant-baseline="middle" text-anchor="middle" font-family="Arial" font-weight="normal" fill="#ffffff" >RY </text><text x="2672.8" y="412.0" font-size="14.0px" dominant-baseline="middle" text-anchor="middle" font-family="Arial" font-weight="normal" fill="#ffffff" >theta22 </text><circle cx="2772.8" cy="100.0" r="4" fill="#fac209" /><circle cx="2772.8" cy="40.0" r="4" fill="#fac209" /><line x1="2772.8" x2="2772.8" y1="40.0" y2="280.0" stroke="#fac209" stroke-width="3" /><rect x="2732.8" y="260.0" width="80.0" height="40" rx="4" ry="4" stroke="#ffffff" stroke-width="0" fill="#fac209" fill-opacity="1" /><text x="2772.8" y="276.0" font-size="20px" dominant-baseline="middle" text-anchor="middle" font-family="Arial" font-weight="normal" fill="#ffffff" >RY </text><text x="2772.8" y="292.0" font-size="14.0px" dominant-baseline="middle" text-anchor="middle" font-family="Arial" font-weight="normal" fill="#ffffff" >theta23 </text><circle cx="2872.8" cy="220.0" r="4" fill="#fac209" /><circle cx="2872.8" cy="40.0" r="4" fill="#fac209" /><line x1="2872.8" x2="2872.8" y1="40.0" y2="220.0" stroke="#fac209" stroke-width="3" /><rect x="2832.8" y="140.0" width="80.0" height="40" rx="4" ry="4" stroke="#ffffff" stroke-width="0" fill="#fac209" fill-opacity="1" /><text x="2872.8" y="156.0" font-size="20px" dominant-baseline="middle" text-anchor="middle" font-family="Arial" font-weight="normal" fill="#ffffff" >RY </text><text x="2872.8" y="172.0" font-size="14.0px" dominant-baseline="middle" text-anchor="middle" font-family="Arial" font-weight="normal" fill="#ffffff" >theta24 </text><rect x="2932.8" y="80.0" width="40.0" height="40" rx="4" ry="4" stroke="#ffffff" stroke-width="0" fill="#5e7ce0" fill-opacity="1" /><text x="2952.8" y="100.0" font-size="20px" dominant-baseline="middle" text-anchor="middle" font-family="Arial" font-weight="normal" fill="#ffffff" >X </text><rect x="2932.8" y="200.0" width="40.0" height="40" rx="4" ry="4" stroke="#ffffff" stroke-width="0" fill="#5e7ce0" fill-opacity="1" /><text x="2952.8" y="220.0" font-size="20px" dominant-baseline="middle" text-anchor="middle" font-family="Arial" font-weight="normal" fill="#ffffff" >X </text><circle cx="3032.8" cy="100.0" r="4" fill="#fac209" /><circle cx="3032.8" cy="40.0" r="4" fill="#fac209" /><line x1="3032.8" x2="3032.8" y1="40.0" y2="400.0" stroke="#fac209" stroke-width="3" /><rect x="2992.8" y="380.0" width="80.0" height="40" rx="4" ry="4" stroke="#ffffff" stroke-width="0" fill="#fac209" fill-opacity="1" /><text x="3032.8" y="396.0" font-size="20px" dominant-baseline="middle" text-anchor="middle" font-family="Arial" font-weight="normal" fill="#ffffff" >RY </text><text x="3032.8" y="412.0" font-size="14.0px" dominant-baseline="middle" text-anchor="middle" font-family="Arial" font-weight="normal" fill="#ffffff" >theta25 </text><circle cx="3132.8" cy="100.0" r="4" fill="#fac209" /><circle cx="3132.8" cy="40.0" r="4" fill="#fac209" /><line x1="3132.8" x2="3132.8" y1="40.0" y2="280.0" stroke="#fac209" stroke-width="3" /><rect x="3092.8" y="260.0" width="80.0" height="40" rx="4" ry="4" stroke="#ffffff" stroke-width="0" fill="#fac209" fill-opacity="1" /><text x="3132.8" y="276.0" font-size="20px" dominant-baseline="middle" text-anchor="middle" font-family="Arial" font-weight="normal" fill="#ffffff" >RY </text><text x="3132.8" y="292.0" font-size="14.0px" dominant-baseline="middle" text-anchor="middle" font-family="Arial" font-weight="normal" fill="#ffffff" >theta26 </text><circle cx="3232.8" cy="220.0" r="4" fill="#fac209" /><circle cx="3232.8" cy="40.0" r="4" fill="#fac209" /><line x1="3232.8" x2="3232.8" y1="40.0" y2="220.0" stroke="#fac209" stroke-width="3" /><rect x="3192.8" y="140.0" width="80.0" height="40" rx="4" ry="4" stroke="#ffffff" stroke-width="0" fill="#fac209" fill-opacity="1" /><text x="3232.8" y="156.0" font-size="20px" dominant-baseline="middle" text-anchor="middle" font-family="Arial" font-weight="normal" fill="#ffffff" >RY </text><text x="3232.8" y="172.0" font-size="14.0px" dominant-baseline="middle" text-anchor="middle" font-family="Arial" font-weight="normal" fill="#ffffff" >theta27 </text><rect x="3292.8" y="20.0" width="40.0" height="40" rx="4" ry="4" stroke="#ffffff" stroke-width="0" fill="#5e7ce0" fill-opacity="1" /><text x="3312.8" y="40.0" font-size="20px" dominant-baseline="middle" text-anchor="middle" font-family="Arial" font-weight="normal" fill="#ffffff" >X </text><circle cx="3392.8" cy="100.0" r="4" fill="#fac209" /><circle cx="3392.8" cy="40.0" r="4" fill="#fac209" /><line x1="3392.8" x2="3392.8" y1="40.0" y2="400.0" stroke="#fac209" stroke-width="3" /><rect x="3352.8" y="380.0" width="80.0" height="40" rx="4" ry="4" stroke="#ffffff" stroke-width="0" fill="#fac209" fill-opacity="1" /><text x="3392.8" y="396.0" font-size="20px" dominant-baseline="middle" text-anchor="middle" font-family="Arial" font-weight="normal" fill="#ffffff" >RY </text><text x="3392.8" y="412.0" font-size="14.0px" dominant-baseline="middle" text-anchor="middle" font-family="Arial" font-weight="normal" fill="#ffffff" >theta28 </text><circle cx="3492.8" cy="100.0" r="4" fill="#fac209" /><circle cx="3492.8" cy="40.0" r="4" fill="#fac209" /><line x1="3492.8" x2="3492.8" y1="40.0" y2="280.0" stroke="#fac209" stroke-width="3" /><rect x="3452.8" y="260.0" width="80.0" height="40" rx="4" ry="4" stroke="#ffffff" stroke-width="0" fill="#fac209" fill-opacity="1" /><text x="3492.8" y="276.0" font-size="20px" dominant-baseline="middle" text-anchor="middle" font-family="Arial" font-weight="normal" fill="#ffffff" >RY </text><text x="3492.8" y="292.0" font-size="14.0px" dominant-baseline="middle" text-anchor="middle" font-family="Arial" font-weight="normal" fill="#ffffff" >theta29 </text><circle cx="3592.8" cy="220.0" r="4" fill="#fac209" /><circle cx="3592.8" cy="40.0" r="4" fill="#fac209" /><line x1="3592.8" x2="3592.8" y1="40.0" y2="220.0" stroke="#fac209" stroke-width="3" /><rect x="3552.8" y="140.0" width="80.0" height="40" rx="4" ry="4" stroke="#ffffff" stroke-width="0" fill="#fac209" fill-opacity="1" /><text x="3592.8" y="156.0" font-size="20px" dominant-baseline="middle" text-anchor="middle" font-family="Arial" font-weight="normal" fill="#ffffff" >RY </text><text x="3592.8" y="172.0" font-size="14.0px" dominant-baseline="middle" text-anchor="middle" font-family="Arial" font-weight="normal" fill="#ffffff" >theta30 </text><rect x="3652.8" y="80.0" width="40.0" height="40" rx="4" ry="4" stroke="#ffffff" stroke-width="0" fill="#5e7ce0" fill-opacity="1" /><text x="3672.8" y="100.0" font-size="20px" dominant-baseline="middle" text-anchor="middle" font-family="Arial" font-weight="normal" fill="#ffffff" >X </text><rect x="3652.8" y="200.0" width="40.0" height="40" rx="4" ry="4" stroke="#ffffff" stroke-width="0" fill="#5e7ce0" fill-opacity="1" /><text x="3672.8" y="220.0" font-size="20px" dominant-baseline="middle" text-anchor="middle" font-family="Arial" font-weight="normal" fill="#ffffff" >X </text><circle cx="3752.8" cy="160.0" r="4" fill="#fac209" /><circle cx="3752.8" cy="40.0" r="4" fill="#fac209" /><line x1="3752.8" x2="3752.8" y1="40.0" y2="520.0" stroke="#fac209" stroke-width="3" /><rect x="3712.8" y="500.0" width="80.0" height="40" rx="4" ry="4" stroke="#ffffff" stroke-width="0" fill="#fac209" fill-opacity="1" /><text x="3752.8" y="516.0" font-size="20px" dominant-baseline="middle" text-anchor="middle" font-family="Arial" font-weight="normal" fill="#ffffff" >RY </text><text x="3752.8" y="532.0" font-size="14.0px" dominant-baseline="middle" text-anchor="middle" font-family="Arial" font-weight="normal" fill="#ffffff" >theta31 </text><rect x="3812.8" y="20.0" width="40.0" height="40" rx="4" ry="4" stroke="#ffffff" stroke-width="0" fill="#5e7ce0" fill-opacity="1" /><text x="3832.8" y="40.0" font-size="20px" dominant-baseline="middle" text-anchor="middle" font-family="Arial" font-weight="normal" fill="#ffffff" >X </text><circle cx="3912.8" cy="160.0" r="4" fill="#fac209" /><circle cx="3912.8" cy="40.0" r="4" fill="#fac209" /><line x1="3912.8" x2="3912.8" y1="40.0" y2="520.0" stroke="#fac209" stroke-width="3" /><rect x="3872.8" y="500.0" width="80.0" height="40" rx="4" ry="4" stroke="#ffffff" stroke-width="0" fill="#fac209" fill-opacity="1" /><text x="3912.8" y="516.0" font-size="20px" dominant-baseline="middle" text-anchor="middle" font-family="Arial" font-weight="normal" fill="#ffffff" >RY </text><text x="3912.8" y="532.0" font-size="14.0px" dominant-baseline="middle" text-anchor="middle" font-family="Arial" font-weight="normal" fill="#ffffff" >theta32 </text><rect x="3972.8" y="140.0" width="40.0" height="40" rx="4" ry="4" stroke="#ffffff" stroke-width="0" fill="#5e7ce0" fill-opacity="1" /><text x="3992.8" y="160.0" font-size="20px" dominant-baseline="middle" text-anchor="middle" font-family="Arial" font-weight="normal" fill="#ffffff" >X </text><circle cx="4072.8" cy="160.0" r="4" fill="#fac209" /><circle cx="4072.8" cy="40.0" r="4" fill="#fac209" /><line x1="4072.8" x2="4072.8" y1="40.0" y2="520.0" stroke="#fac209" stroke-width="3" /><rect x="4032.8" y="500.0" width="80.0" height="40" rx="4" ry="4" stroke="#ffffff" stroke-width="0" fill="#fac209" fill-opacity="1" /><text x="4072.8" y="516.0" font-size="20px" dominant-baseline="middle" text-anchor="middle" font-family="Arial" font-weight="normal" fill="#ffffff" >RY </text><text x="4072.8" y="532.0" font-size="14.0px" dominant-baseline="middle" text-anchor="middle" font-family="Arial" font-weight="normal" fill="#ffffff" >theta33 </text><rect x="4132.8" y="20.0" width="40.0" height="40" rx="4" ry="4" stroke="#ffffff" stroke-width="0" fill="#5e7ce0" fill-opacity="1" /><text x="4152.8" y="40.0" font-size="20px" dominant-baseline="middle" text-anchor="middle" font-family="Arial" font-weight="normal" fill="#ffffff" >X </text><circle cx="4232.8" cy="160.0" r="4" fill="#fac209" /><circle cx="4232.8" cy="40.0" r="4" fill="#fac209" /><line x1="4232.8" x2="4232.8" y1="40.0" y2="520.0" stroke="#fac209" stroke-width="3" /><rect x="4192.8" y="500.0" width="80.0" height="40" rx="4" ry="4" stroke="#ffffff" stroke-width="0" fill="#fac209" fill-opacity="1" /><text x="4232.8" y="516.0" font-size="20px" dominant-baseline="middle" text-anchor="middle" font-family="Arial" font-weight="normal" fill="#ffffff" >RY </text><text x="4232.8" y="532.0" font-size="14.0px" dominant-baseline="middle" text-anchor="middle" font-family="Arial" font-weight="normal" fill="#ffffff" >theta34 </text><rect x="4292.8" y="140.0" width="40.0" height="40" rx="4" ry="4" stroke="#ffffff" stroke-width="0" fill="#5e7ce0" fill-opacity="1" /><text x="4312.8" y="160.0" font-size="20px" dominant-baseline="middle" text-anchor="middle" font-family="Arial" font-weight="normal" fill="#ffffff" >X </text></svg>