<svg xmlns="http://www.w3.org/2000/svg" width="3956.8" height="620.0" xmlns:xlink="http://www.w3.org/1999/xlink"><rect x="0" y="0.0" width="3956.8" height="620.0" fill="#ffffff" /><text x="20.0" y="40.0" font-size="16px" dominant-baseline="middle" text-anchor="start" font-family="Arial" font-weight="normal" fill="#252b3a" >q0: </text><text x="20.0" y="100.0" font-size="16px" dominant-baseline="middle" text-anchor="start" font-family="Arial" font-weight="normal" fill="#252b3a" >q1: </text><text x="20.0" y="160.0" font-size="16px" dominant-baseline="middle" text-anchor="start" font-family="Arial" font-weight="normal" fill="#252b3a" >q2: </text><text x="20.0" y="220.0" font-size="16px" dominant-baseline="middle" text-anchor="start" font-family="Arial" font-weight="normal" fill="#252b3a" >q3: </text><text x="20.0" y="280.0" font-size="16px" dominant-baseline="middle" text-anchor="start" font-family="Arial" font-weight="normal" fill="#252b3a" >q4: </text><text x="20.0" y="340.0" font-size="16px" dominant-baseline="middle" text-anchor="start" font-family="Arial" font-weight="normal" fill="#252b3a" >q5: </text><text x="20.0" y="400.0" font-size="16px" dominant-baseline="middle" text-anchor="start" font-family="Arial" font-weight="normal" fill="#252b3a" >q6: </text><text x="20.0" y="460.0" font-size="16px" dominant-baseline="middle" text-anchor="start" font-family="Arial" font-weight="normal" fill="#252b3a" >q7: </text><text x="20.0" y="520.0" font-size="16px" dominant-baseline="middle" text-anchor="start" font-family="Arial" font-weight="normal" fill="#252b3a" >q8: </text><text x="20.0" y="580.0" font-size="16px" dominant-baseline="middle" text-anchor="start" font-family="Arial" font-weight="normal" fill="#252b3a" >q9: </text><line x1="48.8" x2="3936.8" y1="40.0" y2="40.0" stroke="#adb0b8" stroke-width="1" /><line x1="48.8" x2="3936.8" y1="100.0" y2="100.0" stroke="#adb0b8" stroke-width="1" /><line x1="48.8" x2="3936.8" y1="160.0" y2="160.0" stroke="#adb0b8" stroke-width="1" /><line x1="48.8" x2="3936.8" y1="220.0" y2="220.0" stroke="#adb0b8" stroke-width="1" /><line x1="48.8" x2="3936.8" y1="280.0" y2="280.0" stroke="#adb0b8" stroke-width="1" /><line x1="48.8" x2="3936.8" y1="340.0" y2="340.0" stroke="#adb0b8" stroke-width="1" /><line x1="48.8" x2="3936.8" y1="400.0" y2="400.0" stroke="#adb0b8" stroke-width="1" /><line x1="48.8" x2="3936.8" y1="460.0" y2="460.0" stroke="#adb0b8" stroke-width="1" /><line x1="48.8" x2="3936.8" y1="520.0" y2="520.0" stroke="#adb0b8" stroke-width="1" /><line x1="48.8" x2="3936.8" y1="580.0" y2="580.0" stroke="#adb0b8" stroke-width="1" /><rect x="72.8" y="20.0" width="80.0" height="40" rx="4" ry="4" stroke="#ffffff" stroke-width="0" fill="#fac209" fill-opacity="1" /><text x="112.8" y="36.0" font-size="20px" dominant-baseline="middle" text-anchor="middle" font-family="Arial" font-weight="normal" fill="#ffffff" >RY </text><text x="112.8" y="52.0" font-size="14.0px" dominant-baseline="middle" text-anchor="middle" font-family="Arial" font-weight="normal" fill="#ffffff" >theta0 </text><circle cx="212.8" cy="40.0" r="4" fill="#fac209" /><line x1="212.8" x2="212.8" y1="40.0" y2="580.0" stroke="#fac209" stroke-width="3" /><rect x="172.8" y="560.0" width="80.0" height="40" rx="4" ry="4" stroke="#ffffff" stroke-width="0" fill="#fac209" fill-opacity="1" /><text x="212.8" y="576.0" font-size="20px" dominant-baseline="middle" text-anchor="middle" font-family="Arial" font-weight="normal" fill="#ffffff" >RY </text><text x="212.8" y="592.0" font-size="14.0px" dominant-baseline="middle" text-anchor="middle" font-family="Arial" font-weight="normal" fill="#ffffff" >theta1 </text><rect x="272.8" y="20.0" width="40.0" height="40" rx="4" ry="4" stroke="#ffffff" stroke-width="0" fill="#5e7ce0" fill-opacity="1" /><text x="292.8" y="40.0" font-size="20px" dominant-baseline="middle" text-anchor="middle" font-family="Arial" font-weight="normal" fill="#ffffff" >X </text><circle cx="372.8" cy="40.0" r="4" fill="#fac209" /><line x1="372.8" x2="372.8" y1="40.0" y2="580.0" stroke="#fac209" stroke-width="3" /><rect x="332.8" y="560.0" width="80.0" height="40" rx="4" ry="4" stroke="#ffffff" stroke-width="0" fill="#fac209" fill-opacity="1" /><text x="372.8" y="576.0" font-size="20px" dominant-baseline="middle" text-anchor="middle" font-family="Arial" font-weight="normal" fill="#ffffff" >RY </text><text x="372.8" y="592.0" font-size="14.0px" dominant-baseline="middle" text-anchor="middle" font-family="Arial" font-weight="normal" fill="#ffffff" >theta2 </text><rect x="432.8" y="20.0" width="40.0" height="40" rx="4" ry="4" stroke="#ffffff" stroke-width="0" fill="#5e7ce0" fill-opacity="1" /><text x="452.8" y="40.0" font-size="20px" dominant-baseline="middle" text-anchor="middle" font-family="Arial" font-weight="normal" fill="#ffffff" >X </text><circle cx="532.8" cy="580.0" r="4" fill="#fac209" /><circle cx="532.8" cy="40.0" r="4" fill="#fac209" /><line x1="532.8" x2="532.8" y1="40.0" y2="580.0" stroke="#fac209" stroke-width="3" /><rect x="492.8" y="500.0" width="80.0" height="40" rx="4" ry="4" stroke="#ffffff" stroke-width="0" fill="#fac209" fill-opacity="1" /><text x="532.8" y="516.0" font-size="20px" dominant-baseline="middle" text-anchor="middle" font-family="Arial" font-weight="normal" fill="#ffffff" >RY </text><text x="532.8" y="532.0" font-size="14.0px" dominant-baseline="middle" text-anchor="middle" font-family="Arial" font-weight="normal" fill="#ffffff" >theta3 </text><circle cx="632.8" cy="580.0" r="4" fill="#fac209" /><circle cx="632.8" cy="40.0" r="4" fill="#fac209" /><line x1="632.8" x2="632.8" y1="40.0" y2="580.0" stroke="#fac209" stroke-width="3" /><rect x="592.8" y="440.0" width="80.0" height="40" rx="4" ry="4" stroke="#ffffff" stroke-width="0" fill="#fac209" fill-opacity="1" /><text x="632.8" y="456.0" font-size="20px" dominant-baseline="middle" text-anchor="middle" font-family="Arial" font-weight="normal" fill="#ffffff" >RY </text><text x="632.8" y="472.0" font-size="14.0px" dominant-baseline="middle" text-anchor="middle" font-family="Arial" font-weight="normal" fill="#ffffff" >theta4 </text><circle cx="732.8" cy="580.0" r="4" fill="#fac209" /><circle cx="732.8" cy="40.0" r="4" fill="#fac209" /><line x1="732.8" x2="732.8" y1="40.0" y2="580.0" stroke="#fac209" stroke-width="3" /><rect x="692.8" y="380.0" width="80.0" height="40" rx="4" ry="4" stroke="#ffffff" stroke-width="0" fill="#fac209" fill-opacity="1" /><text x="732.8" y="396.0" font-size="20px" dominant-baseline="middle" text-anchor="middle" font-family="Arial" font-weight="normal" fill="#ffffff" >RY </text><text x="732.8" y="412.0" font-size="14.0px" dominant-baseline="middle" text-anchor="middle" font-family="Arial" font-weight="normal" fill="#ffffff" >theta5 </text><circle cx="832.8" cy="580.0" r="4" fill="#fac209" /><circle cx="832.8" cy="40.0" r="4" fill="#fac209" /><line x1="832.8" x2="832.8" y1="40.0" y2="580.0" stroke="#fac209" stroke-width="3" /><rect x="792.8" y="320.0" width="80.0" height="40" rx="4" ry="4" stroke="#ffffff" stroke-width="0" fill="#fac209" fill-opacity="1" /><text x="832.8" y="336.0" font-size="20px" dominant-baseline="middle" text-anchor="middle" font-family="Arial" font-weight="normal" fill="#ffffff" >RY </text><text x="832.8" y="352.0" font-size="14.0px" dominant-baseline="middle" text-anchor="middle" font-family="Arial" font-weight="normal" fill="#ffffff" >theta6 </text><circle cx="932.8" cy="580.0" r="4" fill="#fac209" /><circle cx="932.8" cy="40.0" r="4" fill="#fac209" /><line x1="932.8" x2="932.8" y1="40.0" y2="580.0" stroke="#fac209" stroke-width="3" /><rect x="892.8" y="260.0" width="80.0" height="40" rx="4" ry="4" stroke="#ffffff" stroke-width="0" fill="#fac209" fill-opacity="1" /><text x="932.8" y="276.0" font-size="20px" dominant-baseline="middle" text-anchor="middle" font-family="Arial" font-weight="normal" fill="#ffffff" >RY </text><text x="932.8" y="292.0" font-size="14.0px" dominant-baseline="middle" text-anchor="middle" font-family="Arial" font-weight="normal" fill="#ffffff" >theta7 </text><circle cx="1032.8" cy="580.0" r="4" fill="#fac209" /><circle cx="1032.8" cy="40.0" r="4" fill="#fac209" /><line x1="1032.8" x2="1032.8" y1="40.0" y2="580.0" stroke="#fac209" stroke-width="3" /><rect x="992.8" y="200.0" width="80.0" height="40" rx="4" ry="4" stroke="#ffffff" stroke-width="0" fill="#fac209" fill-opacity="1" /><text x="1032.8" y="216.0" font-size="20px" dominant-baseline="middle" text-anchor="middle" font-family="Arial" font-weight="normal" fill="#ffffff" >RY </text><text x="1032.8" y="232.0" font-size="14.0px" dominant-baseline="middle" text-anchor="middle" font-family="Arial" font-weight="normal" fill="#ffffff" >theta8 </text><circle cx="1132.8" cy="580.0" r="4" fill="#fac209" /><circle cx="1132.8" cy="40.0" r="4" fill="#fac209" /><line x1="1132.8" x2="1132.8" y1="40.0" y2="580.0" stroke="#fac209" stroke-width="3" /><rect x="1092.8" y="140.0" width="80.0" height="40" rx="4" ry="4" stroke="#ffffff" stroke-width="0" fill="#fac209" fill-opacity="1" /><text x="1132.8" y="156.0" font-size="20px" dominant-baseline="middle" text-anchor="middle" font-family="Arial" font-weight="normal" fill="#ffffff" >RY </text><text x="1132.8" y="172.0" font-size="14.0px" dominant-baseline="middle" text-anchor="middle" font-family="Arial" font-weight="normal" fill="#ffffff" >theta9 </text><circle cx="1232.8" cy="580.0" r="4" fill="#fac209" /><circle cx="1232.8" cy="40.0" r="4" fill="#fac209" /><line x1="1232.8" x2="1232.8" y1="40.0" y2="580.0" stroke="#fac209" stroke-width="3" /><rect x="1192.8" y="80.0" width="80.0" height="40" rx="4" ry="4" stroke="#ffffff" stroke-width="0" fill="#fac209" fill-opacity="1" /><text x="1232.8" y="96.0" font-size="20px" dominant-baseline="middle" text-anchor="middle" font-family="Arial" font-weight="normal" fill="#ffffff" >RY </text><text x="1232.8" y="112.0" font-size="14.0px" dominant-baseline="middle" text-anchor="middle" font-family="Arial" font-weight="normal" fill="#ffffff" >theta10 </text><rect x="1292.8" y="20.0" width="40.0" height="40" rx="4" ry="4" stroke="#ffffff" stroke-width="0" fill="#5e7ce0" fill-opacity="1" /><text x="1312.8" y="40.0" font-size="20px" dominant-baseline="middle" text-anchor="middle" font-family="Arial" font-weight="normal" fill="#ffffff" >X </text><circle cx="1392.8" cy="580.0" r="4" fill="#fac209" /><circle cx="1392.8" cy="40.0" r="4" fill="#fac209" /><line x1="1392.8" x2="1392.8" y1="40.0" y2="580.0" stroke="#fac209" stroke-width="3" /><rect x="1352.8" y="500.0" width="80.0" height="40" rx="4" ry="4" stroke="#ffffff" stroke-width="0" fill="#fac209" fill-opacity="1" /><text x="1392.8" y="516.0" font-size="20px" dominant-baseline="middle" text-anchor="middle" font-family="Arial" font-weight="normal" fill="#ffffff" >RY </text><text x="1392.8" y="532.0" font-size="14.0px" dominant-baseline="middle" text-anchor="middle" font-family="Arial" font-weight="normal" fill="#ffffff" >theta11 </text><circle cx="1492.8" cy="580.0" r="4" fill="#fac209" /><circle cx="1492.8" cy="40.0" r="4" fill="#fac209" /><line x1="1492.8" x2="1492.8" y1="40.0" y2="580.0" stroke="#fac209" stroke-width="3" /><rect x="1452.8" y="440.0" width="80.0" height="40" rx="4" ry="4" stroke="#ffffff" stroke-width="0" fill="#fac209" fill-opacity="1" /><text x="1492.8" y="456.0" font-size="20px" dominant-baseline="middle" text-anchor="middle" font-family="Arial" font-weight="normal" fill="#ffffff" >RY </text><text x="1492.8" y="472.0" font-size="14.0px" dominant-baseline="middle" text-anchor="middle" font-family="Arial" font-weight="normal" fill="#ffffff" >theta12 </text><circle cx="1592.8" cy="580.0" r="4" fill="#fac209" /><circle cx="1592.8" cy="40.0" r="4" fill="#fac209" /><line x1="1592.8" x2="1592.8" y1="40.0" y2="580.0" stroke="#fac209" stroke-width="3" /><rect x="1552.8" y="380.0" width="80.0" height="40" rx="4" ry="4" stroke="#ffffff" stroke-width="0" fill="#fac209" fill-opacity="1" /><text x="1592.8" y="396.0" font-size="20px" dominant-baseline="middle" text-anchor="middle" font-family="Arial" font-weight="normal" fill="#ffffff" >RY </text><text x="1592.8" y="412.0" font-size="14.0px" dominant-baseline="middle" text-anchor="middle" font-family="Arial" font-weight="normal" fill="#ffffff" >theta13 </text><circle cx="1692.8" cy="580.0" r="4" fill="#fac209" /><circle cx="1692.8" cy="40.0" r="4" fill="#fac209" /><line x1="1692.8" x2="1692.8" y1="40.0" y2="580.0" stroke="#fac209" stroke-width="3" /><rect x="1652.8" y="320.0" width="80.0" height="40" rx="4" ry="4" stroke="#ffffff" stroke-width="0" fill="#fac209" fill-opacity="1" /><text x="1692.8" y="336.0" font-size="20px" dominant-baseline="middle" text-anchor="middle" font-family="Arial" font-weight="normal" fill="#ffffff" >RY </text><text x="1692.8" y="352.0" font-size="14.0px" dominant-baseline="middle" text-anchor="middle" font-family="Arial" font-weight="normal" fill="#ffffff" >theta14 </text><circle cx="1792.8" cy="580.0" r="4" fill="#fac209" /><circle cx="1792.8" cy="40.0" r="4" fill="#fac209" /><line x1="1792.8" x2="1792.8" y1="40.0" y2="580.0" stroke="#fac209" stroke-width="3" /><rect x="1752.8" y="260.0" width="80.0" height="40" rx="4" ry="4" stroke="#ffffff" stroke-width="0" fill="#fac209" fill-opacity="1" /><text x="1792.8" y="276.0" font-size="20px" dominant-baseline="middle" text-anchor="middle" font-family="Arial" font-weight="normal" fill="#ffffff" >RY </text><text x="1792.8" y="292.0" font-size="14.0px" dominant-baseline="middle" text-anchor="middle" font-family="Arial" font-weight="normal" fill="#ffffff" >theta15 </text><circle cx="1892.8" cy="580.0" r="4" fill="#fac209" /><circle cx="1892.8" cy="40.0" r="4" fill="#fac209" /><line x1="1892.8" x2="1892.8" y1="40.0" y2="580.0" stroke="#fac209" stroke-width="3" /><rect x="1852.8" y="200.0" width="80.0" height="40" rx="4" ry="4" stroke="#ffffff" stroke-width="0" fill="#fac209" fill-opacity="1" /><text x="1892.8" y="216.0" font-size="20px" dominant-baseline="middle" text-anchor="middle" font-family="Arial" font-weight="normal" fill="#ffffff" >RY </text><text x="1892.8" y="232.0" font-size="14.0px" dominant-baseline="middle" text-anchor="middle" font-family="Arial" font-weight="normal" fill="#ffffff" >theta16 </text><circle cx="1992.8" cy="580.0" r="4" fill="#fac209" /><circle cx="1992.8" cy="40.0" r="4" fill="#fac209" /><line x1="1992.8" x2="1992.8" y1="40.0" y2="580.0" stroke="#fac209" stroke-width="3" /><rect x="1952.8" y="140.0" width="80.0" height="40" rx="4" ry="4" stroke="#ffffff" stroke-width="0" fill="#fac209" fill-opacity="1" /><text x="1992.8" y="156.0" font-size="20px" dominant-baseline="middle" text-anchor="middle" font-family="Arial" font-weight="normal" fill="#ffffff" >RY </text><text x="1992.8" y="172.0" font-size="14.0px" dominant-baseline="middle" text-anchor="middle" font-family="Arial" font-weight="normal" fill="#ffffff" >theta17 </text><circle cx="2092.8" cy="580.0" r="4" fill="#fac209" /><circle cx="2092.8" cy="40.0" r="4" fill="#fac209" /><line x1="2092.8" x2="2092.8" y1="40.0" y2="580.0" stroke="#fac209" stroke-width="3" /><rect x="2052.8" y="80.0" width="80.0" height="40" rx="4" ry="4" stroke="#ffffff" stroke-width="0" fill="#fac209" fill-opacity="1" /><text x="2092.8" y="96.0" font-size="20px" dominant-baseline="middle" text-anchor="middle" font-family="Arial" font-weight="normal" fill="#ffffff" >RY </text><text x="2092.8" y="112.0" font-size="14.0px" dominant-baseline="middle" text-anchor="middle" font-family="Arial" font-weight="normal" fill="#ffffff" >theta18 </text><rect x="2152.8" y="560.0" width="40.0" height="40" rx="4" ry="4" stroke="#ffffff" stroke-width="0" fill="#5e7ce0" fill-opacity="1" /><text x="2172.8" y="580.0" font-size="20px" dominant-baseline="middle" text-anchor="middle" font-family="Arial" font-weight="normal" fill="#ffffff" >X </text><circle cx="2252.8" cy="580.0" r="4" fill="#fac209" /><circle cx="2252.8" cy="40.0" r="4" fill="#fac209" /><line x1="2252.8" x2="2252.8" y1="40.0" y2="580.0" stroke="#fac209" stroke-width="3" /><rect x="2212.8" y="500.0" width="80.0" height="40" rx="4" ry="4" stroke="#ffffff" stroke-width="0" fill="#fac209" fill-opacity="1" /><text x="2252.8" y="516.0" font-size="20px" dominant-baseline="middle" text-anchor="middle" font-family="Arial" font-weight="normal" fill="#ffffff" >RY </text><text x="2252.8" y="532.0" font-size="14.0px" dominant-baseline="middle" text-anchor="middle" font-family="Arial" font-weight="normal" fill="#ffffff" >theta19 </text><circle cx="2352.8" cy="580.0" r="4" fill="#fac209" /><circle cx="2352.8" cy="40.0" r="4" fill="#fac209" /><line x1="2352.8" x2="2352.8" y1="40.0" y2="580.0" stroke="#fac209" stroke-width="3" /><rect x="2312.8" y="440.0" width="80.0" height="40" rx="4" ry="4" stroke="#ffffff" stroke-width="0" fill="#fac209" fill-opacity="1" /><text x="2352.8" y="456.0" font-size="20px" dominant-baseline="middle" text-anchor="middle" font-family="Arial" font-weight="normal" fill="#ffffff" >RY </text><text x="2352.8" y="472.0" font-size="14.0px" dominant-baseline="middle" text-anchor="middle" font-family="Arial" font-weight="normal" fill="#ffffff" >theta20 </text><circle cx="2452.8" cy="580.0" r="4" fill="#fac209" /><circle cx="2452.8" cy="40.0" r="4" fill="#fac209" /><line x1="2452.8" x2="2452.8" y1="40.0" y2="580.0" stroke="#fac209" stroke-width="3" /><rect x="2412.8" y="380.0" width="80.0" height="40" rx="4" ry="4" stroke="#ffffff" stroke-width="0" fill="#fac209" fill-opacity="1" /><text x="2452.8" y="396.0" font-size="20px" dominant-baseline="middle" text-anchor="middle" font-family="Arial" font-weight="normal" fill="#ffffff" >RY </text><text x="2452.8" y="412.0" font-size="14.0px" dominant-baseline="middle" text-anchor="middle" font-family="Arial" font-weight="normal" fill="#ffffff" >theta21 </text><circle cx="2552.8" cy="580.0" r="4" fill="#fac209" /><circle cx="2552.8" cy="40.0" r="4" fill="#fac209" /><line x1="2552.8" x2="2552.8" y1="40.0" y2="580.0" stroke="#fac209" stroke-width="3" /><rect x="2512.8" y="320.0" width="80.0" height="40" rx="4" ry="4" stroke="#ffffff" stroke-width="0" fill="#fac209" fill-opacity="1" /><text x="2552.8" y="336.0" font-size="20px" dominant-baseline="middle" text-anchor="middle" font-family="Arial" font-weight="normal" fill="#ffffff" >RY </text><text x="2552.8" y="352.0" font-size="14.0px" dominant-baseline="middle" text-anchor="middle" font-family="Arial" font-weight="normal" fill="#ffffff" >theta22 </text><circle cx="2652.8" cy="580.0" r="4" fill="#fac209" /><circle cx="2652.8" cy="40.0" r="4" fill="#fac209" /><line x1="2652.8" x2="2652.8" y1="40.0" y2="580.0" stroke="#fac209" stroke-width="3" /><rect x="2612.8" y="260.0" width="80.0" height="40" rx="4" ry="4" stroke="#ffffff" stroke-width="0" fill="#fac209" fill-opacity="1" /><text x="2652.8" y="276.0" font-size="20px" dominant-baseline="middle" text-anchor="middle" font-family="Arial" font-weight="normal" fill="#ffffff" >RY </text><text x="2652.8" y="292.0" font-size="14.0px" dominant-baseline="middle" text-anchor="middle" font-family="Arial" font-weight="normal" fill="#ffffff" >theta23 </text><circle cx="2752.8" cy="580.0" r="4" fill="#fac209" /><circle cx="2752.8" cy="40.0" r="4" fill="#fac209" /><line x1="2752.8" x2="2752.8" y1="40.0" y2="580.0" stroke="#fac209" stroke-width="3" /><rect x="2712.8" y="200.0" width="80.0" height="40" rx="4" ry="4" stroke="#ffffff" stroke-width="0" fill="#fac209" fill-opacity="1" /><text x="2752.8" y="216.0" font-size="20px" dominant-baseline="middle" text-anchor="middle" font-family="Arial" font-weight="normal" fill="#ffffff" >RY </text><text x="2752.8" y="232.0" font-size="14.0px" dominant-baseline="middle" text-anchor="middle" font-family="Arial" font-weight="normal" fill="#ffffff" >theta24 </text><circle cx="2852.8" cy="580.0" r="4" fill="#fac209" /><circle cx="2852.8" cy="40.0" r="4" fill="#fac209" /><line x1="2852.8" x2="2852.8" y1="40.0" y2="580.0" stroke="#fac209" stroke-width="3" /><rect x="2812.8" y="140.0" width="80.0" height="40" rx="4" ry="4" stroke="#ffffff" stroke-width="0" fill="#fac209" fill-opacity="1" /><text x="2852.8" y="156.0" font-size="20px" dominant-baseline="middle" text-anchor="middle" font-family="Arial" font-weight="normal" fill="#ffffff" >RY </text><text x="2852.8" y="172.0" font-size="14.0px" dominant-baseline="middle" text-anchor="middle" font-family="Arial" font-weight="normal" fill="#ffffff" >theta25 </text><circle cx="2952.8" cy="580.0" r="4" fill="#fac209" /><circle cx="2952.8" cy="40.0" r="4" fill="#fac209" /><line x1="2952.8" x2="2952.8" y1="40.0" y2="580.0" stroke="#fac209" stroke-width="3" /><rect x="2912.8" y="80.0" width="80.0" height="40" rx="4" ry="4" stroke="#ffffff" stroke-width="0" fill="#fac209" fill-opacity="1" /><text x="2952.8" y="96.0" font-size="20px" dominant-baseline="middle" text-anchor="middle" font-family="Arial" font-weight="normal" fill="#ffffff" >RY </text><text x="2952.8" y="112.0" font-size="14.0px" dominant-baseline="middle" text-anchor="middle" font-family="Arial" font-weight="normal" fill="#ffffff" >theta26 </text><rect x="3012.8" y="20.0" width="40.0" height="40" rx="4" ry="4" stroke="#ffffff" stroke-width="0" fill="#5e7ce0" fill-opacity="1" /><text x="3032.8" y="40.0" font-size="20px" dominant-baseline="middle" text-anchor="middle" font-family="Arial" font-weight="normal" fill="#ffffff" >X </text><circle cx="3112.8" cy="580.0" r="4" fill="#fac209" /><circle cx="3112.8" cy="40.0" r="4" fill="#fac209" /><line x1="3112.8" x2="3112.8" y1="40.0" y2="580.0" stroke="#fac209" stroke-width="3" /><rect x="3072.8" y="500.0" width="80.0" height="40" rx="4" ry="4" stroke="#ffffff" stroke-width="0" fill="#fac209" fill-opacity="1" /><text x="3112.8" y="516.0" font-size="20px" dominant-baseline="middle" text-anchor="middle" font-family="Arial" font-weight="normal" fill="#ffffff" >RY </text><text x="3112.8" y="532.0" font-size="14.0px" dominant-baseline="middle" text-anchor="middle" font-family="Arial" font-weight="normal" fill="#ffffff" >theta27 </text><circle cx="3212.8" cy="580.0" r="4" fill="#fac209" /><circle cx="3212.8" cy="40.0" r="4" fill="#fac209" /><line x1="3212.8" x2="3212.8" y1="40.0" y2="580.0" stroke="#fac209" stroke-width="3" /><rect x="3172.8" y="440.0" width="80.0" height="40" rx="4" ry="4" stroke="#ffffff" stroke-width="0" fill="#fac209" fill-opacity="1" /><text x="3212.8" y="456.0" font-size="20px" dominant-baseline="middle" text-anchor="middle" font-family="Arial" font-weight="normal" fill="#ffffff" >RY </text><text x="3212.8" y="472.0" font-size="14.0px" dominant-baseline="middle" text-anchor="middle" font-family="Arial" font-weight="normal" fill="#ffffff" >theta28 </text><circle cx="3312.8" cy="580.0" r="4" fill="#fac209" /><circle cx="3312.8" cy="40.0" r="4" fill="#fac209" /><line x1="3312.8" x2="3312.8" y1="40.0" y2="580.0" stroke="#fac209" stroke-width="3" /><rect x="3272.8" y="380.0" width="80.0" height="40" rx="4" ry="4" stroke="#ffffff" stroke-width="0" fill="#fac209" fill-opacity="1" /><text x="3312.8" y="396.0" font-size="20px" dominant-baseline="middle" text-anchor="middle" font-family="Arial" font-weight="normal" fill="#ffffff" >RY </text><text x="3312.8" y="412.0" font-size="14.0px" dominant-baseline="middle" text-anchor="middle" font-family="Arial" font-weight="normal" fill="#ffffff" >theta29 </text><circle cx="3412.8" cy="580.0" r="4" fill="#fac209" /><circle cx="3412.8" cy="40.0" r="4" fill="#fac209" /><line x1="3412.8" x2="3412.8" y1="40.0" y2="580.0" stroke="#fac209" stroke-width="3" /><rect x="3372.8" y="320.0" width="80.0" height="40" rx="4" ry="4" stroke="#ffffff" stroke-width="0" fill="#fac209" fill-opacity="1" /><text x="3412.8" y="336.0" font-size="20px" dominant-baseline="middle" text-anchor="middle" font-family="Arial" font-weight="normal" fill="#ffffff" >RY </text><text x="3412.8" y="352.0" font-size="14.0px" dominant-baseline="middle" text-anchor="middle" font-family="Arial" font-weight="normal" fill="#ffffff" >theta30 </text><circle cx="3512.8" cy="580.0" r="4" fill="#fac209" /><circle cx="3512.8" cy="40.0" r="4" fill="#fac209" /><line x1="3512.8" x2="3512.8" y1="40.0" y2="580.0" stroke="#fac209" stroke-width="3" /><rect x="3472.8" y="260.0" width="80.0" height="40" rx="4" ry="4" stroke="#ffffff" stroke-width="0" fill="#fac209" fill-opacity="1" /><text x="3512.8" y="276.0" font-size="20px" dominant-baseline="middle" text-anchor="middle" font-family="Arial" font-weight="normal" fill="#ffffff" >RY </text><text x="3512.8" y="292.0" font-size="14.0px" dominant-baseline="middle" text-anchor="middle" font-family="Arial" font-weight="normal" fill="#ffffff" >theta31 </text><circle cx="3612.8" cy="580.0" r="4" fill="#fac209" /><circle cx="3612.8" cy="40.0" r="4" fill="#fac209" /><line x1="3612.8" x2="3612.8" y1="40.0" y2="580.0" stroke="#fac209" stroke-width="3" /><rect x="3572.8" y="200.0" width="80.0" height="40" rx="4" ry="4" stroke="#ffffff" stroke-width="0" fill="#fac209" fill-opacity="1" /><text x="3612.8" y="216.0" font-size="20px" dominant-baseline="middle" text-anchor="middle" font-family="Arial" font-weight="normal" fill="#ffffff" >RY </text><text x="3612.8" y="232.0" font-size="14.0px" dominant-baseline="middle" text-anchor="middle" font-family="Arial" font-weight="normal" fill="#ffffff" >theta32 </text><circle cx="3712.8" cy="580.0" r="4" fill="#fac209" /><circle cx="3712.8" cy="40.0" r="4" fill="#fac209" /><line x1="3712.8" x2="3712.8" y1="40.0" y2="580.0" stroke="#fac209" stroke-width="3" /><rect x="3672.8" y="140.0" width="80.0" height="40" rx="4" ry="4" stroke="#ffffff" stroke-width="0" fill="#fac209" fill-opacity="1" /><text x="3712.8" y="156.0" font-size="20px" dominant-baseline="middle" text-anchor="middle" font-family="Arial" font-weight="normal" fill="#ffffff" >RY </text><text x="3712.8" y="172.0" font-size="14.0px" dominant-baseline="middle" text-anchor="middle" font-family="Arial" font-weight="normal" fill="#ffffff" >theta33 </text><circle cx="3812.8" cy="580.0" r="4" fill="#fac209" /><circle cx="3812.8" cy="40.0" r="4" fill="#fac209" /><line x1="3812.8" x2="3812.8" y1="40.0" y2="580.0" stroke="#fac209" stroke-width="3" /><rect x="3772.8" y="80.0" width="80.0" height="40" rx="4" ry="4" stroke="#ffffff" stroke-width="0" fill="#fac209" fill-opacity="1" /><text x="3812.8" y="96.0" font-size="20px" dominant-baseline="middle" text-anchor="middle" font-family="Arial" font-weight="normal" fill="#ffffff" >RY </text><text x="3812.8" y="112.0" font-size="14.0px" dominant-baseline="middle" text-anchor="middle" font-family="Arial" font-weight="normal" fill="#ffffff" >theta34 </text><rect x="3872.8" y="560.0" width="40.0" height="40" rx="4" ry="4" stroke="#ffffff" stroke-width="0" fill="#5e7ce0" fill-opacity="1" /><text x="3892.8" y="580.0" font-size="20px" dominant-baseline="middle" text-anchor="middle" font-family="Arial" font-weight="normal" fill="#ffffff" >X </text></svg>